<?xml version="1.0" encoding="UTF-8"?>
<svg version="1.1" xmlns="http://www.w3.org/2000/svg" width="500" height="500">
<path d="M0 0 C165 0 330 0 500 0 C500 165 500 330 500 500 C335 500 170 500 0 500 C0 335 0 170 0 0 Z " fill="#000000" transform="translate(0,0)"/>
<path d="M0 0 C0.75651352 -0.0066568 1.51302704 -0.0133136 2.29246521 -0.02017212 C3.88334742 -0.03024846 5.47427146 -0.0349907 7.06518555 -0.03466797 C9.49273057 -0.03905642 11.91847727 -0.07546711 14.34570312 -0.11328125 C15.89712924 -0.11914759 17.44856393 -0.12311821 19 -0.125 C19.72095352 -0.13937103 20.44190704 -0.15374207 21.18470764 -0.16854858 C24.79389545 -0.13593649 26.80378332 0.25396101 29.88256836 2.19824219 C32.42569848 4.84883704 32.62779737 6.33916167 32.93359375 9.9609375 C33.96762822 17.73991238 36.39630584 24.33767568 42.24609375 29.7734375 C50.18732751 35.76329971 58.15238802 36.15961798 67.93359375 35.3359375 C74.01962446 34.16366834 78.8898019 31.00109249 82.93359375 26.3359375 C87.06420617 20.20558414 88.5660611 14.31390234 89.18359375 7 C90.2511728 3.20787024 91.54222117 2.36003472 94.93359375 0.3359375 C98.52180674 -0.25850232 102.07280385 -0.21041776 105.703125 -0.18164062 C106.78822357 -0.1886499 107.87332214 -0.19565918 108.99130249 -0.20288086 C112.57649357 -0.22047937 116.1608947 -0.20883077 119.74609375 -0.1953125 C122.23803865 -0.19800686 124.72998253 -0.20188881 127.22192383 -0.20690918 C133.1126688 -0.21356201 139.0031273 -0.1995675 144.8938303 -0.1783061 C149.58916685 -0.16328752 154.28416808 -0.16859997 158.97949219 -0.18554688 C165.45626552 -0.20872231 171.93271473 -0.21237399 178.40951538 -0.19932556 C180.8782865 -0.19665626 183.34707141 -0.19993514 185.81582642 -0.20924377 C189.26561103 -0.21939664 192.71435541 -0.20392427 196.1640625 -0.18164062 C197.18551361 -0.18973755 198.20696472 -0.19783447 199.2593689 -0.20617676 C203.65083688 -0.15359613 206.22882149 -0.08469678 210.05981445 2.20178223 C212.3917551 4.85776387 212.6384617 6.46546724 212.93359375 9.9609375 C213.96762822 17.73991238 216.39630584 24.33767568 222.24609375 29.7734375 C230.1185203 35.71140026 238.22060126 36.3472445 247.93359375 35.3359375 C255.72131068 33.16028592 261.69642175 28.75156511 265.87109375 21.82421875 C267.59639999 17.78370378 268.00834225 13.6316767 268.4765625 9.2890625 C268.91426173 6.46085212 269.31433197 4.67780145 270.93359375 2.3359375 C275.99350508 -1.03607747 282.51239613 0.00263704 288.35791016 0.02026367 C290.53079647 0.02339741 292.70228447 0.0000458 294.875 -0.02539062 C307.27528311 -0.08362004 317.53249033 1.64345997 326.93359375 10.3359375 C334.43044074 19.75896144 336.23750352 27.86973066 336.18756104 39.60191345 C336.19068102 40.72931035 336.193801 41.85670725 336.19701552 43.01826769 C336.20498621 46.79209834 336.19867535 50.56576779 336.19238281 54.33959961 C336.19399298 57.04683261 336.19858198 59.75405878 336.20300293 62.46128845 C336.21188869 69.04906564 336.20997848 75.63679721 336.20417765 82.22457617 C336.19965757 87.57998922 336.19904976 92.9353895 336.20122528 98.29080391 C336.20153175 99.0535454 336.20183821 99.81628689 336.20215397 100.60214176 C336.20279343 102.15173717 336.20344186 103.70133258 336.20409915 105.25092799 C336.20980015 119.77641824 336.20324836 134.30188323 336.19249842 148.82736934 C336.18356491 161.28393271 336.18511374 173.74045879 336.19433594 186.19702148 C336.20504573 200.66962932 336.20924896 215.14221502 336.20311141 229.61482626 C336.20247433 231.15896928 336.20184559 232.7031123 336.20122528 234.24725533 C336.20091673 235.00695915 336.20060818 235.76666297 336.20029028 236.54938812 C336.19856533 241.89625722 336.20147416 247.24311225 336.20618439 252.58997917 C336.21180117 259.10913107 336.21026008 265.62823483 336.1996229 272.14738124 C336.19437661 275.47192902 336.19337316 278.79633036 336.1989212 282.12088776 C336.20438624 285.72833112 336.19753051 289.33554891 336.18756104 292.94297791 C336.19202248 293.98880207 336.19648392 295.03462623 336.20108056 296.11214203 C336.13955766 307.59016028 333.29552947 317.95308029 325.37109375 326.5859375 C318.33281099 333.19522016 309.29192076 337.45166767 299.62795067 337.47015858 C298.54630083 337.47461642 297.464651 337.47907426 296.3502239 337.48366719 C295.16250249 337.48348283 293.97478108 337.48329847 292.75106812 337.48310852 C291.48880484 337.48678521 290.22654157 337.4904619 288.92602789 337.49425 C285.41988195 337.50426069 281.91375313 337.50798529 278.40759492 337.51063931 C274.62692682 337.51454513 270.84627225 337.52412328 267.06561279 337.53285217 C257.93404512 337.55260878 248.80247636 337.56268179 239.67089266 337.57157996 C235.36961033 337.57596419 231.06832924 337.58133066 226.76704788 337.58656883 C212.46678358 337.60358034 198.16652004 337.61807423 183.86624718 337.62531757 C180.15578587 337.62722744 176.44532457 337.62914777 172.73486328 337.63110352 C171.81265781 337.63158726 170.89045234 337.632071 169.94030125 337.6325694 C155.00313021 337.64086867 140.06603927 337.6662042 125.1289032 337.69868419 C109.78993834 337.73176576 94.45101418 337.74976733 79.11201346 337.75296181 C70.50108155 337.7551259 61.89026647 337.76385966 53.27936935 337.78942299 C45.94551383 337.81114498 38.6118035 337.81917305 31.27791946 337.80945621 C27.53789714 337.80491581 23.79817432 337.80678219 20.05819321 337.82621765 C15.99792594 337.84713475 11.93832093 337.8368503 7.87802124 337.82368469 C6.11651562 337.84013856 6.11651562 337.84013856 4.31942403 337.85692483 C-7.34274581 337.76572629 -17.75478884 333.72239623 -26.04296875 325.3359375 C-33.54353657 316.39909074 -35.66987853 306.86199173 -35.58779907 295.42604065 C-35.59545017 294.27763055 -35.60310126 293.12922046 -35.61098421 291.94601005 C-35.63150683 288.12470534 -35.62368657 284.30400939 -35.61572266 280.48266602 C-35.62224099 277.73205851 -35.63466375 274.98148415 -35.646698 272.230896 C-35.67211386 265.5513927 -35.67578932 258.87205049 -35.67109747 252.19250698 C-35.66752247 246.76045522 -35.67104886 241.32845212 -35.67954636 235.89640617 C-35.68073673 235.12148473 -35.68192711 234.34656328 -35.68315356 233.54815937 C-35.68557721 231.97360801 -35.68800548 230.39905666 -35.69043832 228.82450532 C-35.71215874 214.07996327 -35.70787853 199.33551285 -35.69566862 184.59096568 C-35.68532982 171.12018191 -35.70784753 157.64968737 -35.74586506 144.17896081 C-35.78466368 130.32457524 -35.80112677 116.47032637 -35.79361856 102.61588615 C-35.78980118 94.84667208 -35.79470444 87.0777042 -35.82304764 79.30853462 C-35.84693071 72.6954249 -35.84962365 66.082713 -35.8254673 59.46959753 C-35.81372792 56.09959133 -35.81466388 52.73090449 -35.83547211 49.3608532 C-35.8564553 45.69750776 -35.84017112 42.03609536 -35.81484985 38.37281799 C-35.82959842 37.32191894 -35.84434699 36.27101988 -35.85954249 35.1882754 C-35.72641918 25.9894661 -32.2177779 18.35391458 -26.81640625 10.9609375 C-19.15980975 3.65236811 -10.54937045 0.03265853 0 0 Z " fill="#266E44" transform="translate(100.06640625,86.6640625)"/>
<path d="M0 0 C0.75651352 -0.0066568 1.51302704 -0.0133136 2.29246521 -0.02017212 C3.88334742 -0.03024846 5.47427146 -0.0349907 7.06518555 -0.03466797 C9.49273057 -0.03905642 11.91847727 -0.07546711 14.34570312 -0.11328125 C15.89712924 -0.11914759 17.44856393 -0.12311821 19 -0.125 C19.72095352 -0.13937103 20.44190704 -0.15374207 21.18470764 -0.16854858 C24.79389545 -0.13593649 26.80378332 0.25396101 29.88256836 2.19824219 C32.42569848 4.84883704 32.62779737 6.33916167 32.93359375 9.9609375 C33.96762822 17.73991238 36.39630584 24.33767568 42.24609375 29.7734375 C50.18732751 35.76329971 58.15238802 36.15961798 67.93359375 35.3359375 C74.01962446 34.16366834 78.8898019 31.00109249 82.93359375 26.3359375 C87.06420617 20.20558414 88.5660611 14.31390234 89.18359375 7 C90.2511728 3.20787024 91.54222117 2.36003472 94.93359375 0.3359375 C98.52180674 -0.25850232 102.07280385 -0.21041776 105.703125 -0.18164062 C106.78822357 -0.1886499 107.87332214 -0.19565918 108.99130249 -0.20288086 C112.57649357 -0.22047937 116.1608947 -0.20883077 119.74609375 -0.1953125 C122.23803865 -0.19800686 124.72998253 -0.20188881 127.22192383 -0.20690918 C133.1126688 -0.21356201 139.0031273 -0.1995675 144.8938303 -0.1783061 C149.58916685 -0.16328752 154.28416808 -0.16859997 158.97949219 -0.18554688 C165.45626552 -0.20872231 171.93271473 -0.21237399 178.40951538 -0.19932556 C180.8782865 -0.19665626 183.34707141 -0.19993514 185.81582642 -0.20924377 C189.26561103 -0.21939664 192.71435541 -0.20392427 196.1640625 -0.18164062 C197.18551361 -0.18973755 198.20696472 -0.19783447 199.2593689 -0.20617676 C203.65083688 -0.15359613 206.22882149 -0.08469678 210.05981445 2.20178223 C212.3917551 4.85776387 212.6384617 6.46546724 212.93359375 9.9609375 C213.96762822 17.73991238 216.39630584 24.33767568 222.24609375 29.7734375 C230.1185203 35.71140026 238.22060126 36.3472445 247.93359375 35.3359375 C255.72131068 33.16028592 261.69642175 28.75156511 265.87109375 21.82421875 C267.59639999 17.78370378 268.00834225 13.6316767 268.4765625 9.2890625 C268.91426173 6.46085212 269.31433197 4.67780145 270.93359375 2.3359375 C275.99350508 -1.03607747 282.51239613 0.00263704 288.35791016 0.02026367 C290.53079647 0.02339741 292.70228447 0.0000458 294.875 -0.02539062 C307.27528311 -0.08362004 317.53249033 1.64345997 326.93359375 10.3359375 C334.14618919 19.40167669 336.25502502 27.32700209 336.12890625 38.64453125 C336.12466141 40.09461327 336.12466141 40.09461327 336.12033081 41.57398987 C336.10919782 44.64060202 336.08410599 47.70691465 336.05859375 50.7734375 C336.04855506 52.86132389 336.03943076 54.94921488 336.03125 57.03710938 C336.00928102 62.13683294 335.97479882 67.23633455 335.93359375 72.3359375 C332.65613204 73.42842474 330.26781886 73.46015859 326.81725788 73.45898533 C324.8854638 73.4619719 324.8854638 73.4619719 322.91464359 73.46501881 C321.4771379 73.46216556 320.0396324 73.45921996 318.60212708 73.45619202 C317.08161119 73.45662783 315.56109538 73.45750292 314.04057997 73.45878118 C309.85156932 73.46102415 305.66258408 73.45700754 301.47357666 73.45200312 C296.96029479 73.44769598 292.44701443 73.44914523 287.93373108 73.4499054 C280.11058524 73.45043046 272.28744772 73.44728545 264.46430397 73.44166756 C253.15326641 73.43355023 241.84223289 73.4309371 230.53119274 73.42967957 C212.18103051 73.42748941 193.83087271 73.42083032 175.48071289 73.41137695 C157.6522626 73.40220189 139.82381351 73.39512152 121.99536133 73.39086914 C120.34772202 73.39047506 120.34772202 73.39047506 118.66679708 73.39007301 C113.15647077 73.388768 107.64614445 73.38750428 102.13581812 73.38626111 C56.40174026 73.37588964 10.66766723 73.35827231 -35.06640625 73.3359375 C-35.21982995 66.86245457 -35.32414858 60.38944831 -35.39599609 53.91455078 C-35.42597886 51.71678142 -35.46677984 49.51912977 -35.51904297 47.32177734 C-36.0591491 24.01249101 -36.0591491 24.01249101 -29.06640625 14.3359375 C-28.68758301 13.7363623 -28.30875977 13.13678711 -27.91845703 12.51904297 C-21.67634985 3.69380415 -10.27740986 0.0318166 0 0 Z " fill="#1E5736" transform="translate(100.06640625,86.6640625)"/>
<path d="M0 0 C1.17791107 -0.00281982 2.35582214 -0.00563965 3.56942749 -0.00854492 C4.87336456 -0.00652069 6.17730164 -0.00449646 7.52075195 -0.00241089 C8.89857021 -0.00376491 10.27638811 -0.00554484 11.65420532 -0.00772095 C15.40616868 -0.0122952 19.15810465 -0.01050576 22.91006851 -0.00734186 C26.82806728 -0.00481822 30.74606364 -0.00715581 34.6640625 -0.00872803 C41.24487735 -0.01054971 47.82568099 -0.00814345 54.40649414 -0.00338745 C62.02558763 0.00205517 69.64465437 0.00029251 77.26374722 -0.00521386 C83.79366759 -0.00974502 90.32357988 -0.01039552 96.85350132 -0.00777519 C100.75865175 -0.00621243 104.66378958 -0.00601861 108.56893921 -0.00931168 C112.23947788 -0.01219044 115.9099819 -0.0102146 119.58051682 -0.00441742 C121.57822369 -0.00245422 123.57593348 -0.00544369 125.57363892 -0.00854492 C126.75154999 -0.0057251 127.92946106 -0.00290527 129.14306641 0 C130.17325394 0.00037703 131.20344147 0.00075405 132.2648468 0.0011425 C134.5715332 0.12698364 134.5715332 0.12698364 135.5715332 1.12698364 C135.67013452 2.530471 135.70232257 3.93878841 135.7043457 5.34573364 C135.70563477 6.19522583 135.70692383 7.04471802 135.70825195 7.91995239 C135.70438477 8.81327271 135.70051758 9.70659302 135.6965332 10.62698364 C135.70040039 11.52030396 135.70426758 12.41362427 135.70825195 13.33401489 C135.70631836 14.60825317 135.70631836 14.60825317 135.7043457 15.90823364 C135.70321777 16.69262817 135.70208984 17.47702271 135.70092773 18.28518677 C135.5715332 20.12698364 135.5715332 20.12698364 134.5715332 21.12698364 C133.0367035 21.22017814 131.49761238 21.24444165 129.95996094 21.24050903 C128.97901962 21.2404335 127.99807831 21.24035797 126.9874115 21.24028015 C125.9207576 21.23511887 124.8541037 21.22995758 123.75512695 21.22463989 C122.12584007 21.22251747 122.12584007 21.22251747 120.46363831 21.22035217 C116.97874245 21.21473412 113.49390979 21.20217857 110.0090332 21.18948364 C107.65291434 21.18447097 105.29679447 21.17990766 102.94067383 21.17581177 C97.15093856 21.16475883 91.36124039 21.14800315 85.5715332 21.12698364 C85.9324707 21.86561646 86.2934082 22.60424927 86.6652832 23.36526489 C89.98649203 30.62579642 91.1334423 36.19919838 90.5715332 44.12698364 C91.39505531 44.12365273 91.39505531 44.12365273 92.23521423 44.12025452 C97.92861279 44.09820007 103.6219993 44.08307638 109.31542969 44.072052 C111.44271334 44.06701066 113.56999352 44.06017773 115.69726562 44.05154419 C118.74781146 44.03946985 121.79831166 44.0337535 124.84887695 44.02932739 C126.28480446 44.02158546 126.28480446 44.02158546 127.7497406 44.01368713 C129.07099693 44.01357384 129.07099693 44.01357384 130.41894531 44.01345825 C131.58809731 44.01012733 131.58809731 44.01012733 132.78086853 44.00672913 C134.5715332 44.12698364 134.5715332 44.12698364 135.5715332 45.12698364 C135.67013452 46.530471 135.70232257 47.93878841 135.7043457 49.34573364 C135.70563477 50.19522583 135.70692383 51.04471802 135.70825195 51.91995239 C135.70438477 52.81327271 135.70051758 53.70659302 135.6965332 54.62698364 C135.70040039 55.52030396 135.70426758 56.41362427 135.70825195 57.33401489 C135.70631836 58.60825317 135.70631836 58.60825317 135.7043457 59.90823364 C135.70321777 60.69262817 135.70208984 61.47702271 135.70092773 62.28518677 C135.5715332 64.12698364 135.5715332 64.12698364 134.5715332 65.12698364 C133.15928275 65.21985625 131.74244386 65.24445136 130.32714844 65.24050903 C129.42629013 65.2404335 128.52543182 65.24035797 127.59727478 65.24028015 C126.618116 65.23511887 125.63895721 65.22995758 124.63012695 65.22463989 C123.63271988 65.22322495 122.63531281 65.22181 121.60768127 65.22035217 C118.40810197 65.21473479 115.20859152 65.20217935 112.0090332 65.18948364 C109.84562275 65.18447088 107.68221121 65.17990759 105.51879883 65.17581177 C100.20301995 65.16475971 94.88728149 65.14800468 89.5715332 65.12698364 C89.44138824 65.73969116 89.31124329 66.35239868 89.17715454 66.9836731 C89.00259735 67.79022339 88.82804016 68.59677368 88.64819336 69.42776489 C88.4767984 70.22609741 88.30540344 71.02442993 88.1288147 71.84695435 C85.20017544 83.82901974 77.02634619 93.46654552 66.7355957 99.84963989 C66.02145508 100.27116333 65.30731445 100.69268677 64.5715332 101.12698364 C63.93989258 101.51756958 63.30825195 101.90815552 62.6574707 102.31057739 C53.67760506 107.71036444 44.80259315 108.31225435 34.5715332 108.12698364 C39.02371462 114.31378119 43.52264402 120.42601105 48.3215332 126.34963989 C49.5715332 128.12698364 49.5715332 128.12698364 49.5715332 130.12698364 C50.2315332 130.12698364 50.8915332 130.12698364 51.5715332 130.12698364 C53.13012695 132.04104614 53.13012695 132.04104614 55.0090332 134.75198364 C58.21022041 139.26722057 61.50904801 143.66424781 64.9465332 148.00198364 C69.29928588 153.50708961 73.61212092 159.03791008 77.87231445 164.61526489 C79.90865473 167.27745642 81.97609449 169.91351245 84.05200195 172.54495239 C85.24605103 174.07226592 86.44006181 175.59960939 87.6340332 177.12698364 C88.20686035 177.84539429 88.7796875 178.56380493 89.36987305 179.3039856 C94.43271439 185.81543452 94.43271439 185.81543452 94.5715332 190.12698364 C91.25071347 193.44780338 81.41650449 192.17733745 76.99267578 192.25906372 C66.58455898 191.95364915 66.58455898 191.95364915 62.6027832 188.22854614 C59.93540639 184.93649496 57.922268 181.2885147 55.94213867 177.55325317 C53.46791627 173.17334185 50.35364936 169.25572811 47.3215332 165.25198364 C46.13647324 163.64368798 44.95282724 162.03434928 43.77075195 160.42385864 C40.75050915 156.34507414 37.64305814 152.34908903 34.43188477 148.41848755 C28.30936948 140.87702712 22.55173309 133.07310537 16.8215332 125.23245239 C15.08012933 122.85745737 13.32856268 120.49043874 11.5715332 118.12698364 C10.95197754 117.28715942 10.33242187 116.44733521 9.6940918 115.58206177 C9.08388184 114.77188599 8.47367188 113.96171021 7.8449707 113.12698364 C7.29760254 112.39479614 6.75023437 111.66260864 6.1862793 110.90823364 C3.96914081 108.46247579 1.76978987 107.73617539 -1.4284668 107.12698364 C-2.9845343 105.57091614 -2.55817448 104.06740993 -2.5612793 101.90823364 C-2.56256836 101.05874146 -2.56385742 100.20924927 -2.56518555 99.33401489 C-2.56131836 98.44069458 -2.55745117 97.54737427 -2.5534668 96.62698364 C-2.55733398 95.73366333 -2.56120117 94.84034302 -2.56518555 93.91995239 C-2.56325195 92.64571411 -2.56325195 92.64571411 -2.5612793 91.34573364 C-2.56015137 90.56133911 -2.55902344 89.77694458 -2.55786133 88.96878052 C-2.4284668 87.12698364 -2.4284668 87.12698364 -1.4284668 86.12698364 C1.59322287 86.02822561 4.59618845 85.98982878 7.6184082 85.98635864 C9.51555535 85.9680025 11.41269105 85.94842968 13.30981445 85.92776489 C16.29812528 85.89901708 19.28571272 85.87698957 22.27416992 85.87649536 C35.2311338 85.86132073 47.03561239 85.70949803 58.0715332 77.93948364 C60.4277672 75.2887204 61.69335015 73.1095771 63.2277832 69.95120239 C63.66928711 69.04845581 64.11079102 68.14570923 64.56567383 67.21560669 C64.89760742 66.52636108 65.22954102 65.83711548 65.5715332 65.12698364 C64.69900909 65.12920425 63.82648499 65.13142487 62.92752075 65.13371277 C54.71653656 65.15372554 46.50556052 65.16896283 38.29455757 65.17879581 C34.07290738 65.18402093 29.85127729 65.19111186 25.62963867 65.2024231 C21.55776649 65.21326514 17.48591367 65.21926329 13.41402817 65.22186089 C11.85825165 65.22371275 10.30247622 65.22732882 8.74670792 65.2327137 C6.57257013 65.2399416 4.39851305 65.24097384 2.22436523 65.24050903 C0.36571335 65.24383995 0.36571335 65.24383995 -1.53048706 65.24723816 C-4.4284668 65.12698364 -4.4284668 65.12698364 -6.4284668 64.12698364 C-6.45735194 60.98116941 -6.47522603 57.83538895 -6.4909668 54.68948364 C-6.4993457 53.79165161 -6.50772461 52.89381958 -6.51635742 51.96878052 C-6.51958008 51.11477661 -6.52280273 50.26077271 -6.52612305 49.38088989 C-6.53397827 48.19475098 -6.53397827 48.19475098 -6.54199219 46.98464966 C-6.4284668 45.12698364 -6.4284668 45.12698364 -5.4284668 44.12698364 C-3.18916794 44.03261835 -0.9468493 44.00956037 1.29443359 44.01345825 C1.9968367 44.01331223 2.69923981 44.0131662 3.42292786 44.01301575 C5.75504599 44.01371492 8.0870852 44.02150747 10.41918945 44.02932739 C12.03201758 44.03119156 13.64484627 44.03261547 15.25767517 44.03361511 C19.51068677 44.03744041 23.76366444 44.04727079 28.0166626 44.05831909 C32.3533075 44.06853296 36.68995787 44.07311268 41.02661133 44.07815552 C49.54160089 44.08889305 58.05656283 44.10596961 66.5715332 44.12698364 C66.29577847 42.54068518 66.00832298 40.95641831 65.71606445 39.37307739 C65.47786987 38.04941162 65.47786987 38.04941162 65.23486328 36.69900513 C63.95151475 31.7229003 61.20507807 28.34167085 57.1340332 25.31448364 C50.05917 22.0358885 43.91318309 21.80459526 36.20825195 21.74807739 C35.02052689 21.73108292 33.83280182 21.71408844 32.60908508 21.69657898 C28.82578804 21.64355381 25.04250187 21.6031763 21.2590332 21.56448364 C17.45776557 21.5206035 13.65658411 21.47399172 9.85542297 21.42167664 C7.49170921 21.38963054 5.12791868 21.36276861 2.76408386 21.34144592 C1.70240494 21.32795609 0.64072601 21.31446625 -0.453125 21.30056763 C-1.39211136 21.29105576 -2.33109772 21.28154388 -3.29853821 21.27174377 C-5.4284668 21.12698364 -5.4284668 21.12698364 -6.4284668 20.12698364 C-6.52706811 18.72349629 -6.55925616 17.31517887 -6.5612793 15.90823364 C-6.56256836 15.05874146 -6.56385742 14.20924927 -6.56518555 13.33401489 C-6.56131836 12.44069458 -6.55745117 11.54737427 -6.5534668 10.62698364 C-6.55733398 9.73366333 -6.56120117 8.84034302 -6.56518555 7.91995239 C-6.56389648 7.07046021 -6.56260742 6.22096802 -6.5612793 5.34573364 C-6.56015137 4.56133911 -6.55902344 3.77694458 -6.55786133 2.96878052 C-6.27893862 -1.00139474 -3.32133909 0.00121554 0 0 Z " fill="#F7FBF2" transform="translate(185.428466796875,192.87301635742188)"/>
<path d="M0 0 C5.23724692 2.96387807 8.8638854 7.84165621 10.75 13.5 C10.8830632 16.28294793 10.96226777 19.0399957 10.98828125 21.82421875 C10.996353 22.64445023 11.00442474 23.4646817 11.01274109 24.30976868 C11.02656868 26.04722998 11.03729676 27.78471829 11.04516602 29.5222168 C11.05666432 31.29020199 11.07708205 33.05815307 11.10668945 34.82592773 C11.14959602 37.38809669 11.16556841 39.94923402 11.17578125 42.51171875 C11.19328934 43.29222092 11.21079742 44.07272308 11.22883606 44.87687683 C11.20336457 51.41112557 9.22949524 56.44195587 5.109375 61.5234375 C-0.25831532 66.0312551 -5.26645315 67.90549388 -12.3125 67.375 C-17.42130381 66.48346365 -21.52223775 64.71439297 -24.76171875 60.5625 C-28.50259537 54.73144877 -29.42376188 50.08128913 -29.48828125 43.17578125 C-29.496353 42.35554977 -29.50442474 41.5353183 -29.51274109 40.69023132 C-29.52656868 38.95277002 -29.53729676 37.21528171 -29.54516602 35.4777832 C-29.55666432 33.70979801 -29.57708205 31.94184693 -29.60668945 30.17407227 C-29.64959602 27.61190331 -29.66556841 25.05076598 -29.67578125 22.48828125 C-29.69328934 21.70777908 -29.71079742 20.92727692 -29.72883606 20.12312317 C-29.70329889 13.5720251 -27.8816148 8.1619213 -23.21484375 3.44140625 C-22.54582031 2.98636719 -21.87679687 2.53132813 -21.1875 2.0625 C-20.51589844 1.58941406 -19.84429687 1.11632813 -19.15234375 0.62890625 C-13.44639011 -2.75717301 -5.99764308 -2.62324659 0 0 Z " fill="#1F5636" transform="translate(170.25,47.5)"/>
<path d="M0 0 C4.79502543 3.46010744 7.22582997 7.56453117 8.75390625 13.265625 C8.96178096 16.01533582 9.08144395 18.66165449 9.08984375 21.41015625 C9.09650055 22.17937912 9.10315735 22.94860199 9.11001587 23.74113464 C9.12009862 25.36231105 9.12483425 26.9835286 9.12451172 28.60473633 C9.12887541 31.06076918 9.16521221 33.51498863 9.203125 35.97070312 C9.27090691 45.24272568 9.18299534 53.00786763 2.9375 60.421875 C2.36128906 60.8653125 1.78507812 61.30875 1.19140625 61.765625 C0.32322266 62.46171875 0.32322266 62.46171875 -0.5625 63.171875 C-5.70853935 66.51500962 -12.37950043 65.77514818 -18.24609375 65.265625 C-23.15133812 63.7121569 -26.4875739 60.55665588 -29.24609375 56.265625 C-31.29649497 51.30164149 -31.56686855 46.92924387 -31.58203125 41.6484375 C-31.58868805 40.83245087 -31.59534485 40.01646423 -31.60220337 39.17575073 C-31.61228914 37.45621989 -31.61702166 35.73665023 -31.61669922 34.01708984 C-31.62106926 31.40525953 -31.65742143 28.79512534 -31.6953125 26.18359375 C-31.70118243 24.50521405 -31.70515064 22.82682641 -31.70703125 21.1484375 C-31.72140228 20.3773465 -31.73577332 19.60625549 -31.75057983 18.8117981 C-31.69938054 12.64768749 -30.08562641 7.34486922 -25.83407593 2.73440552 C-18.31247248 -3.89129245 -8.75652612 -5.0239463 0 0 Z " fill="#1F5636" transform="translate(352.24609375,48.734375)"/>
<path d="M0 0 C13.28187409 -0.02312079 26.56374343 -0.04091374 39.84563351 -0.05181217 C46.0122492 -0.05704158 52.17885118 -0.06414027 58.34545898 -0.07543945 C64.29116006 -0.08626629 70.23684789 -0.0922764 76.18255806 -0.09487724 C78.45646943 -0.09673186 80.73038004 -0.10035317 83.00428581 -0.10573006 C86.1772712 -0.11293778 89.35020117 -0.11399106 92.52319336 -0.11352539 C93.47337341 -0.11712067 94.42355347 -0.12071594 95.40252686 -0.12442017 C101.88594784 -0.11405216 101.88594784 -0.11405216 103 1 C103.08669432 2.4887186 103.10703494 3.981445 103.09765625 5.47265625 C103.09282227 6.82133789 103.09282227 6.82133789 103.08789062 8.19726562 C103.07532227 9.61555664 103.07532227 9.61555664 103.0625 11.0625 C103.05798828 12.01189453 103.05347656 12.96128906 103.04882812 13.93945312 C103.0370011 16.29303065 103.02052025 18.64648477 103 21 C102.67 21 102.34 21 102 21 C101.93941406 19.71222656 101.87882812 18.42445313 101.81640625 17.09765625 C101.73201753 15.41925841 101.6473687 13.74087364 101.5625 12.0625 C101.52318359 11.21236328 101.48386719 10.36222656 101.44335938 9.48632812 C101.40146484 8.67744141 101.35957031 7.86855469 101.31640625 7.03515625 C101.27974854 6.2862915 101.24309082 5.53742676 101.20532227 4.76586914 C101.18228937 2.97538674 101.18228937 2.97538674 100 2 C96.89564263 1.874595 93.81247504 1.8138673 90.70678711 1.79467773 C89.24353249 1.77982834 89.24353249 1.77982834 87.75071716 1.76467896 C84.50961782 1.73296052 81.26850378 1.70826581 78.02734375 1.68359375 C75.78674426 1.66303314 73.54614873 1.64203692 71.30555725 1.62062073 C65.39544877 1.56530775 59.48530475 1.5159393 53.57513428 1.46777344 C47.54940614 1.4176256 41.52372988 1.36190455 35.49804688 1.30664062 C23.66540886 1.19894628 11.83272588 1.09752652 0 1 C0 0.67 0 0.34 0 0 Z " fill="#316A48" transform="translate(219,191)"/>
<path d="M0 0 C1.64510941 0.00015915 3.29022379 0.00585551 4.93530273 0.01586914 C6.23164894 0.01799156 6.23164894 0.01799156 7.55418396 0.02015686 C10.32578941 0.025773 13.09731528 0.0383282 15.86889648 0.05102539 C17.74324428 0.05603831 19.61759334 0.06060158 21.49194336 0.06469727 C26.09679192 0.07574767 30.70158069 0.09302309 35.30639648 0.11352539 C35.30639648 0.44352539 35.30639648 0.77352539 35.30639648 1.11352539 C34.40397217 1.13858154 33.50154785 1.1636377 32.57177734 1.18945312 C29.19650814 1.28507166 25.82138255 1.38427366 22.44628906 1.48583984 C20.99060118 1.52892472 19.53487131 1.57061614 18.07910156 1.61083984 C15.97635287 1.6691895 13.87381043 1.73269055 11.77124023 1.79711914 C10.50916748 1.83377686 9.24709473 1.87043457 7.94677734 1.90820312 C4.33167021 2.11209992 0.87889757 2.54796325 -2.69360352 3.11352539 C-2.82896981 5.53206985 -2.92780631 7.94302322 -3.00610352 10.36352539 C-3.04799805 11.04543945 -3.08989258 11.72735352 -3.13305664 12.42993164 C-3.24107489 14.72637639 -3.24107489 14.72637639 -2.69360352 18.11352539 C-0.33232295 20.63057911 -0.33232295 20.63057911 2.30639648 22.11352539 C-0.06860352 22.23852539 -0.06860352 22.23852539 -2.69360352 22.11352539 C-4.69360352 20.11352539 -4.69360352 20.11352539 -4.93652344 18.15820312 C-4.93241455 17.37904541 -4.92830566 16.5998877 -4.92407227 15.79711914 C-4.92213867 14.95084961 -4.92020508 14.10458008 -4.91821289 13.23266602 C-4.9059668 12.34772461 -4.8937207 11.4627832 -4.88110352 10.55102539 C-4.88045898 9.6622168 -4.87981445 8.7734082 -4.87915039 7.85766602 C-4.82622594 0.1483373 -4.82622594 0.1483373 0 0 Z " fill="#E1F7E5" transform="translate(187.693603515625,278.886474609375)"/>
<path d="M0 0 C3.96 0 7.92 0 12 0 C11.67 0.66 11.34 1.32 11 2 C10.34 2 9.68 2 9 2 C9.33 2.99 9.66 3.98 10 5 C6.63295715 5.2295711 4.58629732 5.33943529 1.625 3.625 C1.08875 3.08875 0.5525 2.5525 0 2 C0 1.34 0 0.68 0 0 Z " fill="#276844" transform="translate(220,301)"/>
<path d="M0 0 C2.81256281 -0.02684312 5.62487241 -0.04676188 8.4375 -0.0625 C9.23994141 -0.07087891 10.04238281 -0.07925781 10.86914062 -0.08789062 C12.91295221 -0.0965143 14.95683902 -0.0522815 17 0 C18 1 18 1 18.11352539 2.94946289 C18.10828857 3.7821167 18.10305176 4.61477051 18.09765625 5.47265625 C18.09443359 6.37177734 18.09121094 7.27089844 18.08789062 8.19726562 C18.07951172 9.14279297 18.07113281 10.08832031 18.0625 11.0625 C18.05798828 12.01189453 18.05347656 12.96128906 18.04882812 13.93945312 C18.0370011 16.29303065 18.02052025 18.64648477 18 21 C17.67 21 17.34 21 17 21 C16.93941406 19.71222656 16.87882812 18.42445313 16.81640625 17.09765625 C16.73201753 15.41925841 16.6473687 13.74087364 16.5625 12.0625 C16.52318359 11.21236328 16.48386719 10.36222656 16.44335938 9.48632812 C16.40146484 8.67744141 16.35957031 7.86855469 16.31640625 7.03515625 C16.27974854 6.2862915 16.24309082 5.53742676 16.20532227 4.76586914 C16.18228937 2.97538674 16.18228937 2.97538674 15 2 C12.47403741 1.76346477 9.96892793 1.57826308 7.4375 1.4375 C6.72658203 1.39431641 6.01566406 1.35113281 5.28320312 1.30664062 C3.52238088 1.20028223 1.7612168 1.09961154 0 1 C0 0.67 0 0.34 0 0 Z " fill="#4D7C5E" transform="translate(304,191)"/>
<path d="M0 0 C0.99 0 1.98 0 3 0 C3 0.66 3 1.32 3 2 C2.01 2.495 2.01 2.495 1 3 C0.945652 5.0622048 0.90705039 7.12482816 0.875 9.1875 C0.85179687 10.33605469 0.82859375 11.48460937 0.8046875 12.66796875 C0.99515848 15.91740372 1.60639873 18.08660521 3 21 C1.68 20.67 0.36 20.34 -1 20 C-1.02888514 16.85418577 -1.04675923 13.70840531 -1.0625 10.5625 C-1.07087891 9.66466797 -1.07925781 8.76683594 -1.08789062 7.84179688 C-1.09111328 6.98779297 -1.09433594 6.13378906 -1.09765625 5.25390625 C-1.10551147 4.06776733 -1.10551147 4.06776733 -1.11352539 2.85766602 C-1 1 -1 1 0 0 Z " fill="#E4F8E9" transform="translate(180,193)"/>
<path d="M0 0 C0.66 0 1.32 0 2 0 C4.48063781 12.48519362 4.48063781 12.48519362 3 19 C2.67 19 2.34 19 2 19 C1.95101563 18.28714844 1.90203125 17.57429688 1.8515625 16.83984375 C1.41871477 11.29491509 0.75971184 6.27913551 -1 1 C-0.67 0.67 -0.34 0.34 0 0 Z " fill="#4A795C" transform="translate(274,218)"/>
<path d="M0 0 C0.66 0.99 1.32 1.98 2 3 C2.804375 3.7425 2.804375 3.7425 3.625 4.5 C5 6 5 6 5 9 C5.66 9 6.32 9 7 9 C7 9.66 7 10.32 7 11 C7.66 11 8.32 11 9 11 C8.67 11.66 8.34 12.32 8 13 C4.15025825 10.00575642 1.03839046 7.5564022 -1 3 C-0.67 2.01 -0.34 1.02 0 0 Z " fill="#316749" transform="translate(71,403)"/>
<path d="M0 0 C0.33 0.66 0.66 1.32 1 2 C0.109375 4.34765625 0.109375 4.34765625 -1.25 7.0625 C-1.68828125 7.96097656 -2.1265625 8.85945313 -2.578125 9.78515625 C-4 12 -4 12 -7 13 C-5.87913866 9.12009535 -4.96723147 6.71996219 -2 4 C-0.82425289 1.90010348 -0.82425289 1.90010348 0 0 Z " fill="#306849" transform="translate(433,397)"/>
<path d="M0 0 C1.32 1.32 2.64 2.64 4 4 C3.01 5.32 2.02 6.64 1 8 C-0.5625 6.1875 -0.5625 6.1875 -2 4 C-1 1 -1 1 0 0 Z " fill="#34724D" transform="translate(197,311)"/>
<path d="M0 0 C0.66 0.33 1.32 0.66 2 1 C2.25 6.625 2.25 6.625 0 10 C-0.99 9.67 -1.98 9.34 -3 9 C-2.01 6.03 -1.02 3.06 0 0 Z " fill="#3A6F51" transform="translate(274,261)"/>
<path d="M0 0 C-1.0283153 3.08494591 -1.47262996 4.08268479 -4 6 C-7.1875 6.6875 -7.1875 6.6875 -10 7 C-3.18421053 0 -3.18421053 0 0 0 Z " fill="#366D4C" transform="translate(262,286)"/>
<path d="M0 0 C1.5 1.25 1.5 1.25 3 3 C3 4.32 3 5.64 3 7 C2.01 7 1.02 7 0 7 C-1.6875 4.5 -1.6875 4.5 -3 2 C-2.01 1.34 -1.02 0.68 0 0 Z " fill="#336B47" transform="translate(257,344)"/>
<path d="M0 0 C0.99 0.33 1.98 0.66 3 1 C1.95125002 3.62187494 1.35068687 4.79371361 -1.125 6.25 C-1.74375 6.4975 -2.3625 6.745 -3 7 C-1.125 1.125 -1.125 1.125 0 0 Z " fill="#E4F1E3" transform="translate(260,281)"/>
<path d="M0 0 C1.65 1.65 3.3 3.3 5 5 C4.67 5.66 4.34 6.32 4 7 C2.68 6.34 1.36 5.68 0 5 C0 3.35 0 1.7 0 0 Z " fill="#3A7050" transform="translate(233,359)"/>
<path d="M0 0 C0.66 1.32 1.32 2.64 2 4 C0.68 5.32 -0.64 6.64 -2 8 C-2.66 7.34 -3.32 6.68 -4 6 C-2.68 4.02 -1.36 2.04 0 0 Z " fill="#E4F4E5" transform="translate(249,263)"/>
<path d="M0 0 C2.52588702 2.36292656 3.88820837 3.66462511 5 7 C4.34 7 3.68 7 3 7 C2.67 7.66 2.34 8.32 2 9 C1.34 8.67 0.68 8.34 0 8 C0 5.36 0 2.72 0 0 Z " fill="#E5F3E5" transform="translate(272,370)"/>
<path d="M0 0 C2.97 0 5.94 0 9 0 C8.67 0.66 8.34 1.32 8 2 C5.67843403 2.40729228 3.3431213 2.74438677 1 3 C0.67 2.01 0.34 1.02 0 0 Z " fill="#5F8970" transform="translate(220,301)"/>
<path d="M0 0 C0.33 0.66 0.66 1.32 1 2 C0.67 2.66 0.34 3.32 0 4 C-0.66 4 -1.32 4 -2 4 C-2.33 4.99 -2.66 5.98 -3 7 C-4.32 6.67 -5.64 6.34 -7 6 C-4.69 4.02 -2.38 2.04 0 0 Z " fill="#2D583E" transform="translate(183,113)"/>
</svg>
