<?xml version="1.0" encoding="UTF-8"?>
<svg version="1.1" xmlns="http://www.w3.org/2000/svg" width="512" height="512">
<path d="M0 0 C1.78934105 -0.00679646 3.57867509 -0.01571083 5.36799622 -0.02655029 C10.17387429 -0.04910782 14.9792084 -0.04060643 19.7850945 -0.02465487 C24.8464434 -0.01187438 29.90774995 -0.02376916 34.96910095 -0.03158569 C43.46288295 -0.04064639 51.95644657 -0.02878798 60.45019531 -0.00488281 C70.2314427 0.02233026 80.01216887 0.01349839 89.79340369 -0.01401484 C98.23473597 -0.03679695 106.67591251 -0.03986198 115.11726564 -0.02682149 C120.14000663 -0.01907791 125.16250362 -0.01784371 130.18522835 -0.03450394 C134.90931332 -0.04908316 139.63273438 -0.0386848 144.35674858 -0.01003265 C146.07708008 -0.00349335 147.79746871 -0.00519465 149.51777649 -0.01634598 C164.81313834 -0.10625588 178.76405456 2.46905099 191.43334961 11.64697266 C192.35889648 12.30568359 193.28444336 12.96439453 194.23803711 13.64306641 C205.01319785 21.83394063 210.33149346 31.91124701 214.43334961 44.64697266 C214.77886871 45.71511703 215.12438782 46.78326141 215.4803772 47.8837738 C217.09536 54.48891517 216.72905407 61.34008778 216.72387695 68.09643555 C216.72986877 69.65946776 216.73667582 71.22249703 216.74423218 72.78552246 C216.76183826 77.0152758 216.76658543 81.2449481 216.76786375 85.47473454 C216.76928959 88.12423678 216.77356748 90.7737187 216.77885818 93.42321587 C216.79734448 102.68653536 216.80553103 111.94979744 216.80395508 121.21313477 C216.80275582 129.81432814 216.82381931 138.41526971 216.8554424 147.01639944 C216.8817044 154.4265122 216.89231815 161.83654327 216.89104426 169.24670213 C216.8905373 173.6608917 216.89607119 178.07485758 216.91740036 182.48900032 C216.93694947 186.64816313 216.93679506 190.80689283 216.9223671 194.96607208 C216.92029799 196.48042633 216.92486455 197.99480889 216.93708801 199.50911522 C217.08209459 218.74112549 212.01099423 236.99814025 198.29663086 251.10791016 C181.67970871 265.84324358 162.71366746 268.96067118 141.10253906 268.92163086 C139.49290228 268.92598794 137.88326757 268.93117437 136.27363586 268.93711853 C131.93447671 268.95041562 127.59540517 268.95109743 123.25622964 268.94855523 C119.61621704 268.94747875 115.97622168 268.9523863 112.33621281 268.95716065 C103.73714937 268.96822466 95.13812961 268.9687114 86.5390625 268.96264648 C77.7106534 268.95661483 68.882404 268.96890432 60.05402213 268.99021655 C52.43743139 269.0079176 44.82089107 269.01382042 37.20428056 269.01057881 C32.671643 269.00877863 28.13911928 269.01127374 23.60650063 269.02529335 C19.33735047 269.03800572 15.06844627 269.03580308 10.79929924 269.02288246 C9.24708594 269.02054563 7.69485459 269.02314514 6.14266205 269.03150558 C-16.2831898 269.14342925 -36.36217997 265.04561525 -53.31665039 249.33447266 C-67.63726111 234.08884641 -69.71996091 215.74327334 -69.71191406 195.69482422 C-69.71491108 194.19736651 -69.71831485 192.69990956 -69.72209167 191.20245361 C-69.73088102 187.156784 -69.73326766 183.11113558 -69.73390746 179.06545734 C-69.73462089 176.53138576 -69.73676074 173.99731947 -69.73940468 171.46324921 C-69.74864162 162.60423952 -69.75274167 153.74524482 -69.75195312 144.88623047 C-69.75135291 136.65825461 -69.761898 128.43034444 -69.77769679 120.20238519 C-69.79081853 113.11330874 -69.79613508 106.02425365 -69.79549772 98.93516517 C-69.79524407 94.71226928 -69.79802085 90.48943183 -69.80867577 86.26654816 C-69.81843503 82.29051387 -69.81838294 78.31459293 -69.81115913 74.33855438 C-69.81012292 72.88947888 -69.81241802 71.44039603 -69.81851959 69.99133301 C-69.89835721 49.69644448 -66.5469655 33.24165646 -52.91430664 17.77197266 C-51.56665039 16.64697266 -51.56665039 16.64697266 -49.56665039 16.64697266 C-49.56665039 15.98697266 -49.56665039 15.32697266 -49.56665039 14.64697266 C-47.62230842 13.07855734 -45.70754337 11.70571339 -43.62915039 10.33447266 C-43.10385742 9.95613281 -42.57856445 9.57779297 -42.03735352 9.18798828 C-29.49219312 0.90397734 -14.53755963 -0.09435727 0 0 Z M25.43334961 86.64697266 C25.3348379 88.47813149 25.30362332 90.31317199 25.30834961 92.14697266 C25.30577148 93.14728516 25.30319336 94.14759766 25.30053711 95.17822266 C25.15464579 97.59096888 25.15464579 97.59096888 26.43334961 98.64697266 C29.07698796 98.75781583 31.69887167 98.80861788 34.34350586 98.82275391 C35.99000271 98.84597404 37.63648709 98.87009223 39.28295898 98.89501953 C41.88094139 98.92997874 44.47847241 98.95938224 47.07666016 98.97290039 C49.58283765 98.98849652 52.08768515 99.02880201 54.59350586 99.07275391 C55.35840836 99.07084549 56.12331085 99.06893707 56.91139221 99.06697083 C63.08736252 99.20517489 68.29696729 100.8921574 73.00013733 105.02314758 C76.10768437 108.42113963 76.84410808 111.19354723 77.43334961 115.64697266 C76.4782827 115.64364174 76.4782827 115.64364174 75.50392151 115.64024353 C68.90219685 115.61819226 62.30048257 115.60306672 55.69873047 115.59204102 C53.23192927 115.58699909 50.76513109 115.58016575 48.29833984 115.5715332 C44.76130432 115.55946141 41.22430816 115.5537431 37.68725586 115.54931641 C36.5768544 115.54415512 35.46645294 115.53899384 34.32240295 115.53367615 C33.30142014 115.53360062 32.28043732 115.53352509 31.22851562 115.53344727 C29.87283226 115.53011635 29.87283226 115.53011635 28.48976135 115.52671814 C26.4408138 115.41796804 26.4408138 115.41796804 25.43334961 116.64697266 C25.33511024 118.31126317 25.3036133 119.97979197 25.30834961 121.64697266 C25.30577148 122.55447266 25.30319336 123.46197266 25.30053711 124.39697266 C25.18161182 126.61663876 25.18161182 126.61663876 26.43334961 127.64697266 C28.02945942 127.74030971 29.62968389 127.76442638 31.22851562 127.76049805 C32.75998985 127.76038475 32.75998985 127.76038475 34.32240295 127.76026917 C35.43280441 127.75510788 36.54320587 127.74994659 37.68725586 127.74462891 C38.8178392 127.74321396 39.94842255 127.74179901 41.11326599 127.74034119 C44.74082026 127.73472285 48.36831385 127.72216724 51.99584961 127.70947266 C54.44832268 127.70446002 56.90079671 127.6998967 59.35327148 127.69580078 C65.37998506 127.68474746 71.406663 127.66799149 77.43334961 127.64697266 C75.08411607 134.82299274 73.13407314 138.56888459 66.66381836 142.53369141 C61.4745429 145.12378511 56.84302467 145.91780716 51.06616211 146.06103516 C50.3865744 146.08040131 49.70698669 146.09976746 49.00680542 146.11972046 C46.85744382 146.17902365 44.7080272 146.22570157 42.55834961 146.27197266 C41.09218171 146.31019798 39.62603518 146.3492523 38.15991211 146.38916016 C34.58458797 146.4846831 31.00910213 146.56889391 27.43334961 146.64697266 C26.25541064 151.39018684 26.86773477 153.21950263 29.37084961 157.45947266 C29.93674805 158.43529297 30.50264648 159.41111328 31.08569336 160.41650391 C31.7527832 161.52058594 31.7527832 161.52058594 32.43334961 162.64697266 C33.09334961 162.64697266 33.75334961 162.64697266 34.43334961 162.64697266 C34.70791992 163.22713135 34.98249023 163.80729004 35.26538086 164.4050293 C36.40850181 166.59927672 37.67187764 168.51506115 39.12084961 170.51806641 C39.64928467 171.25017334 40.17771973 171.98228027 40.72216797 172.73657227 C41.28685791 173.51137939 41.85154785 174.28618652 42.43334961 175.08447266 C43.31228882 176.29598999 43.31228882 176.29598999 44.20898438 177.53198242 C48.29628962 183.1438776 52.48403944 188.66167207 56.74975586 194.13916016 C60.81773257 199.40729196 64.7094024 204.81081833 68.61279297 210.20141602 C70.19508542 212.36979265 71.80733103 214.51131465 73.43334961 216.64697266 C74.35760742 217.90574219 74.35760742 217.90574219 75.30053711 219.18994141 C78.72298452 221.52798698 82.15119891 221.0708299 86.18334961 220.89697266 C86.97612305 220.87892578 87.76889648 220.86087891 88.58569336 220.84228516 C90.53543309 220.79530348 92.48454839 220.7235631 94.43334961 220.64697266 C93.812362 217.22186809 92.51955647 215.0878008 90.44897461 212.31103516 C89.84311523 211.49376953 89.23725586 210.67650391 88.61303711 209.83447266 C87.97624023 208.98884766 87.33944336 208.14322266 86.68334961 207.27197266 C86.06202148 206.43408203 85.44069336 205.59619141 84.80053711 204.73291016 C82.17945363 201.21601334 79.5454449 197.72813355 76.71850586 194.37353516 C74.55197877 191.78851651 72.57471183 189.14471995 70.62084961 186.39697266 C67.32087784 181.81678585 63.86981188 177.39667141 60.32788086 173.00244141 C58.53341242 170.77138065 56.74903352 168.53563016 54.99584961 166.27197266 C54.52276367 165.66611328 54.04967773 165.06025391 53.56225586 164.43603516 C52.34939132 162.51391765 51.85889354 160.86762721 51.43334961 158.64697266 C51.99022461 158.67017578 52.54709961 158.69337891 53.12084961 158.71728516 C63.84239804 158.97083529 72.2900481 155.69596683 81.18334961 149.83447266 C86.95258236 144.22549637 90.4373571 138.05245158 93.43334961 130.64697266 C93.92834961 129.65697266 93.92834961 129.65697266 94.43334961 128.64697266 C102.35334961 128.31697266 110.27334961 127.98697266 118.43334961 127.64697266 C118.43334961 124.01697266 118.43334961 120.38697266 118.43334961 116.64697266 C116.71891742 114.93254047 114.4288972 115.41644299 112.08569336 115.33056641 C110.46630859 115.26772461 110.46630859 115.26772461 108.81420898 115.20361328 C107.67790039 115.16429687 106.5415918 115.12498047 105.37084961 115.08447266 C104.23067383 115.04128906 103.09049805 114.99810547 101.91577148 114.95361328 C99.08842766 114.84714427 96.26099223 114.74513058 93.43334961 114.64697266 C92.97762044 111.65218099 92.52189128 108.65738932 92.06616211 105.66259766 C91.4950785 102.94113748 90.71926743 101.07236926 89.43334961 98.64697266 C90.69779907 98.65482788 90.69779907 98.65482788 91.98779297 98.6628418 C95.10562896 98.67985092 98.22344138 98.69240671 101.34130859 98.7019043 C102.69255347 98.70694322 104.04379287 98.71377443 105.39501953 98.72241211 C107.33355395 98.73449685 109.27212761 98.73967094 111.21069336 98.74462891 C112.37850342 98.74986572 113.54631348 98.75510254 114.74951172 98.76049805 C117.35226512 98.95358761 117.35226512 98.95358761 118.43334961 97.64697266 C118.53193564 96.19137896 118.56307104 94.73089347 118.55834961 93.27197266 C118.56092773 92.48048828 118.56350586 91.68900391 118.56616211 90.87353516 C118.51952627 88.47353769 118.51952627 88.47353769 117.43334961 85.64697266 C105.58569788 85.62385063 93.73805147 85.60605829 81.89038181 85.59516048 C76.38964099 85.58993135 70.88891556 85.58283315 65.38818359 85.5715332 C60.08438401 85.56070541 54.78059926 85.55469605 49.47678947 85.55209541 C47.44849349 85.55024097 45.42019835 85.54661999 43.39190865 85.5412426 C40.56138447 85.5340336 37.73092243 85.53298165 34.90039062 85.53344727 C34.0530687 85.52985199 33.20574677 85.52625671 32.33274841 85.52255249 C28.57829117 85.16460221 28.57829117 85.16460221 25.43334961 86.64697266 Z " fill="#2B7F56" transform="translate(183.566650390625,122.35302734375)"/>
<path d="M0 0 C1.78934105 -0.00679646 3.57867509 -0.01571083 5.36799622 -0.02655029 C10.17387429 -0.04910782 14.9792084 -0.04060643 19.7850945 -0.02465487 C24.8464434 -0.01187438 29.90774995 -0.02376916 34.96910095 -0.03158569 C43.46288295 -0.04064639 51.95644657 -0.02878798 60.45019531 -0.00488281 C70.2314427 0.02233026 80.01216887 0.01349839 89.79340369 -0.01401484 C98.23473597 -0.03679695 106.67591251 -0.03986198 115.11726564 -0.02682149 C120.14000663 -0.01907791 125.16250362 -0.01784371 130.18522835 -0.03450394 C134.90931332 -0.04908316 139.63273438 -0.0386848 144.35674858 -0.01003265 C146.07708008 -0.00349335 147.79746871 -0.00519465 149.51777649 -0.01634598 C164.81313834 -0.10625588 178.76405456 2.46905099 191.43334961 11.64697266 C192.35889648 12.30568359 193.28444336 12.96439453 194.23803711 13.64306641 C205.01319785 21.83394063 210.33149346 31.91124701 214.43334961 44.64697266 C214.77886871 45.71511703 215.12438782 46.78326141 215.4803772 47.8837738 C217.09536 54.48891517 216.72905407 61.34008778 216.72387695 68.09643555 C216.72986877 69.65946776 216.73667582 71.22249703 216.74423218 72.78552246 C216.76183826 77.0152758 216.76658543 81.2449481 216.76786375 85.47473454 C216.76928959 88.12423678 216.77356748 90.7737187 216.77885818 93.42321587 C216.79734448 102.68653536 216.80553103 111.94979744 216.80395508 121.21313477 C216.80275582 129.81432814 216.82381931 138.41526971 216.8554424 147.01639944 C216.8817044 154.4265122 216.89231815 161.83654327 216.89104426 169.24670213 C216.8905373 173.6608917 216.89607119 178.07485758 216.91740036 182.48900032 C216.93694947 186.64816313 216.93679506 190.80689283 216.9223671 194.96607208 C216.92029799 196.48042633 216.92486455 197.99480889 216.93708801 199.50911522 C217.05173832 214.71501842 213.86201501 227.34966159 206.43334961 240.64697266 C206.10334961 239.65697266 205.77334961 238.66697266 205.43334961 237.64697266 C206.39089347 235.94526886 207.35542797 234.24681367 208.36766815 232.57706642 C216.58811856 217.68871497 214.04611426 196.80399675 214.04110718 180.3403244 C214.04368633 176.72445655 214.06789107 173.1088446 214.09008789 169.49304199 C214.14243445 158.98193659 214.16091055 148.47068445 214.18334961 137.95947266 C214.26584961 114.42634766 214.34834961 90.89322266 214.43334961 66.64697266 C121.37334961 66.64697266 28.31334961 66.64697266 -67.56665039 66.64697266 C-67.44290039 89.97384766 -67.31915039 113.30072266 -67.19165039 137.33447266 C-67.15765137 144.68172607 -67.12365234 152.02897949 -67.08862305 159.59887695 C-67.04868409 166.22355695 -67.04868409 166.22355695 -67.00619507 172.84822083 C-66.98743698 175.78347856 -66.97402337 178.71870678 -66.96395874 181.65400696 C-66.95089043 185.41279648 -66.9283877 189.17142453 -66.89941669 192.93012393 C-66.88617914 194.94074049 -66.8822938 196.95141221 -66.87891579 198.96206951 C-66.76912194 210.96007287 -65.01869725 222.16316342 -61.56665039 233.64697266 C-62.22665039 233.97697266 -62.88665039 234.30697266 -63.56665039 234.64697266 C-64.3910188 232.33813271 -65.20109369 230.02572711 -66.00415039 227.70947266 C-66.34929687 226.74944336 -66.34929687 226.74944336 -66.70141602 225.77001953 C-70.05974906 215.98704937 -69.71601821 205.92018043 -69.71191406 195.69482422 C-69.71491108 194.19736651 -69.71831485 192.69990956 -69.72209167 191.20245361 C-69.73088102 187.156784 -69.73326766 183.11113558 -69.73390746 179.06545734 C-69.73462089 176.53138576 -69.73676074 173.99731947 -69.73940468 171.46324921 C-69.74864162 162.60423952 -69.75274167 153.74524482 -69.75195312 144.88623047 C-69.75135291 136.65825461 -69.761898 128.43034444 -69.77769679 120.20238519 C-69.79081853 113.11330874 -69.79613508 106.02425365 -69.79549772 98.93516517 C-69.79524407 94.71226928 -69.79802085 90.48943183 -69.80867577 86.26654816 C-69.81843503 82.29051387 -69.81838294 78.31459293 -69.81115913 74.33855438 C-69.81012292 72.88947888 -69.81241802 71.44039603 -69.81851959 69.99133301 C-69.89835721 49.69644448 -66.5469655 33.24165646 -52.91430664 17.77197266 C-51.56665039 16.64697266 -51.56665039 16.64697266 -49.56665039 16.64697266 C-49.56665039 15.98697266 -49.56665039 15.32697266 -49.56665039 14.64697266 C-47.62230842 13.07855734 -45.70754337 11.70571339 -43.62915039 10.33447266 C-43.10385742 9.95613281 -42.57856445 9.57779297 -42.03735352 9.18798828 C-29.49219312 0.90397734 -14.53755963 -0.09435727 0 0 Z " fill="#1C5B3D" transform="translate(183.566650390625,122.35302734375)"/>
<path d="M0 0 C1.78934105 -0.00679646 3.57867509 -0.01571083 5.36799622 -0.02655029 C10.17387429 -0.04910782 14.9792084 -0.04060643 19.7850945 -0.02465487 C24.8464434 -0.01187438 29.90774995 -0.02376916 34.96910095 -0.03158569 C43.46288295 -0.04064639 51.95644657 -0.02878798 60.45019531 -0.00488281 C70.2314427 0.02233026 80.01216887 0.01349839 89.79340369 -0.01401484 C98.23473597 -0.03679695 106.67591251 -0.03986198 115.11726564 -0.02682149 C120.14000663 -0.01907791 125.16250362 -0.01784371 130.18522835 -0.03450394 C134.90931332 -0.04908316 139.63273438 -0.0386848 144.35674858 -0.01003265 C146.07708008 -0.00349335 147.79746871 -0.00519465 149.51777649 -0.01634598 C164.81313834 -0.10625588 178.76405456 2.46905099 191.43334961 11.64697266 C192.35889648 12.30568359 193.28444336 12.96439453 194.23803711 13.64306641 C205.01319785 21.83394063 210.33149346 31.91124701 214.43334961 44.64697266 C214.77886871 45.71511703 215.12438782 46.78326141 215.4803772 47.8837738 C217.09536 54.48891517 216.72905407 61.34008778 216.72387695 68.09643555 C216.72986877 69.65946776 216.73667582 71.22249703 216.74423218 72.78552246 C216.76183826 77.0152758 216.76658543 81.2449481 216.76786375 85.47473454 C216.76928959 88.12423678 216.77356748 90.7737187 216.77885818 93.42321587 C216.79734448 102.68653536 216.80553103 111.94979744 216.80395508 121.21313477 C216.80275582 129.81432814 216.82381931 138.41526971 216.8554424 147.01639944 C216.8817044 154.4265122 216.89231815 161.83654327 216.89104426 169.24670213 C216.8905373 173.6608917 216.89607119 178.07485758 216.91740036 182.48900032 C216.93694947 186.64816313 216.93679506 190.80689283 216.9223671 194.96607208 C216.92029799 196.48042633 216.92486455 197.99480889 216.93708801 199.50911522 C217.05173832 214.71501842 213.86201501 227.34966159 206.43334961 240.64697266 C206.10334961 239.65697266 205.77334961 238.66697266 205.43334961 237.64697266 C206.39021136 235.94205337 207.35421454 234.24041867 208.36732483 232.56831169 C216.82258082 217.32906614 214.02378025 195.48185282 213.97065163 178.61038852 C213.96038165 174.31740284 213.96995531 170.02444794 213.97619629 165.73146057 C213.98343183 158.52916221 213.97399275 151.32702902 213.95483398 144.12475586 C213.93306485 135.8465764 213.94013348 127.56879118 213.96213961 119.29062122 C213.98040145 112.12904801 213.98279996 104.96759217 213.97238493 97.80600315 C213.96620982 93.55231442 213.9651465 89.29880984 213.97853088 85.04513359 C214.98157581 53.57294182 214.98157581 53.57294182 202.43334961 25.64697266 C201.84038086 24.88771484 201.24741211 24.12845703 200.63647461 23.34619141 C197.25770927 19.25728733 193.88854396 16.47221785 189.43334961 13.64697266 C189.43334961 12.98697266 189.43334961 12.32697266 189.43334961 11.64697266 C188.85327148 11.46521484 188.27319336 11.28345703 187.67553711 11.09619141 C186.89436523 10.84482422 186.11319336 10.59345703 185.30834961 10.33447266 C184.54264648 10.09083984 183.77694336 9.84720703 182.98803711 9.59619141 C180.43334961 8.64697266 180.43334961 8.64697266 177.77627563 7.19169617 C160.84096562 -0.63389475 138.01968009 2.21931656 119.75014162 2.27692771 C115.25110199 2.28839897 110.75207134 2.28412308 106.25302124 2.28218079 C98.71039056 2.28130324 91.1678507 2.29226889 83.62524414 2.31079102 C74.94091496 2.33199649 66.25671811 2.33545541 57.57236826 2.32922906 C49.16179788 2.32351102 40.75127344 2.32920676 32.34070969 2.3404026 C28.7852632 2.34501168 25.22984515 2.3459387 21.67439651 2.34381676 C17.48315223 2.34191616 13.29204036 2.35017197 9.10082626 2.36587715 C7.57476601 2.37007385 6.04869221 2.37100222 4.52262878 2.36818695 C-12.92245683 2.34091419 -28.83597197 3.77814377 -43.56665039 13.64697266 C-44.27950195 14.11103516 -44.99235352 14.57509766 -45.72680664 15.05322266 C-56.70325563 22.6669445 -63.61438148 35.27383275 -66.22297001 48.30156612 C-67.78453851 58.95830757 -67.72448508 69.91836129 -67.77197266 80.66040039 C-67.78158625 82.09116882 -67.79159815 83.52193463 -67.80197144 84.95269775 C-67.82865042 88.78431482 -67.84985658 92.61594374 -67.86997342 96.44760013 C-67.89206555 100.47144059 -67.91933894 104.49524611 -67.94602966 108.51905823 C-67.99564641 116.11526441 -68.0406983 123.71149032 -68.08405203 131.30773455 C-68.13369212 139.96574006 -68.18850964 148.62371047 -68.24373162 157.2816819 C-68.35707455 175.07007945 -68.46401459 192.85851026 -68.56665039 210.64697266 C-68.89665039 210.64697266 -69.22665039 210.64697266 -69.56665039 210.64697266 C-69.61347656 190.79239628 -69.64869111 170.93783119 -69.67027473 151.08321095 C-69.68056502 141.86331646 -69.69458214 132.64345638 -69.7175293 123.42358398 C-69.73753224 115.38278847 -69.75038314 107.34201789 -69.75482738 99.30119818 C-69.75742312 95.0479792 -69.76347684 90.79483153 -69.7781105 86.54163551 C-69.7918038 82.5287957 -69.79584959 78.51605577 -69.79286575 74.50319481 C-69.79341071 73.03961009 -69.79731759 71.57602161 -69.80506134 70.11245728 C-69.9073159 49.76836297 -66.58192341 33.28132502 -52.91430664 17.77197266 C-51.56665039 16.64697266 -51.56665039 16.64697266 -49.56665039 16.64697266 C-49.56665039 15.98697266 -49.56665039 15.32697266 -49.56665039 14.64697266 C-47.62230842 13.07855734 -45.70754337 11.70571339 -43.62915039 10.33447266 C-43.10385742 9.95613281 -42.57856445 9.57779297 -42.03735352 9.18798828 C-29.49219312 0.90397734 -14.53755963 -0.09435727 0 0 Z " fill="#052D13" transform="translate(183.566650390625,122.35302734375)"/>
<path d="M0 0 C2.75569447 2.18159145 4.43588747 3.87177494 6 7 C6.26518877 10.26463453 6.23154074 13.53828887 6.25 16.8125 C6.270625 17.71548828 6.29125 18.61847656 6.3125 19.54882812 C6.34170782 24.51780807 6.2817243 27.98452407 3 32 C0.01158633 34.32432174 -3.29702619 34.47116644 -7.03125 34.39453125 C-10.38693026 33.72206358 -11.95936396 31.59717314 -14 29 C-15.80739357 25.38521286 -15.22756068 21.16767454 -15.25 17.1875 C-15.270625 16.28451172 -15.29125 15.38152344 -15.3125 14.45117188 C-15.34157247 9.50521735 -15.32645556 5.95599505 -12 2 C-7.99745384 -0.66836411 -4.70686701 -0.8340238 0 0 Z " fill="#2B7E55" transform="translate(321,139)"/>
<path d="M0 0 C3.52787301 1.95657197 5.70285021 4.10855063 7 8 C7.24904978 10.93312719 7.2311822 13.86986607 7.25 16.8125 C7.270625 17.60720703 7.29125 18.40191406 7.3125 19.22070312 C7.34572157 24.24131244 6.76610625 27.64067079 4 32 C0.65129014 34.63112918 -2.87988064 34.36141398 -7 34 C-10.5386994 32.34860695 -11.81070153 31.28394771 -14 28 C-14.45978727 24.39047673 -14.37032084 20.7607038 -14.375 17.125 C-14.39949219 16.13113281 -14.42398438 15.13726562 -14.44921875 14.11328125 C-14.47863017 6.78983826 -14.47863017 6.78983826 -12.1015625 2.8671875 C-8.41574461 -0.40757263 -4.79814211 -0.81007594 0 0 Z " fill="#2C7E55" transform="translate(201,139)"/>
<path d="M0 0 C5.28534706 0.32032406 8.43220064 3.38726614 12 7 C14 10 14 10 14 16 C-11.245 16.495 -11.245 16.495 -37 17 C-37 20.3 -37 23.6 -37 27 C-20.17 27.33 -3.34 27.66 14 28 C14 33.86234054 12.9119599 35.88065909 9 40 C2.42135032 45.14674647 -3.99010196 47.26454461 -12.3671875 47.1953125 C-13.04677521 47.1924826 -13.72636292 47.18965271 -14.42654419 47.18673706 C-16.57621608 47.17562964 -18.72545614 47.15054391 -20.875 47.125 C-22.34113977 47.11495795 -23.80728614 47.10583425 -25.2734375 47.09765625 C-28.84909631 47.07572159 -32.42450594 47.04125814 -36 47 C-35.87753906 48.25039063 -35.75507813 49.50078125 -35.62890625 50.7890625 C-35.56002197 51.49240723 -35.4911377 52.19575195 -35.42016602 52.92041016 C-34.77029161 56.13692973 -32.92072262 58.39773064 -31 61 C-31 61.66 -31 62.32 -31 63 C-30.34 63 -29.68 63 -29 63 C-27.76318359 64.37695312 -27.76318359 64.37695312 -26.3984375 66.28125 C-25.90859375 66.95800781 -25.41875 67.63476562 -24.9140625 68.33203125 C-24.40617188 69.04746094 -23.89828125 69.76289063 -23.375 70.5 C-22.859375 71.21542969 -22.34375 71.93085938 -21.8125 72.66796875 C-20.53577041 74.44120429 -19.26529973 76.21859948 -18 78 C-18.33 78.66 -18.66 79.32 -19 80 C-22.41910837 76.02942254 -25.6419022 71.9209535 -28.8125 67.75 C-29.60269531 66.71359375 -30.39289063 65.6771875 -31.20703125 64.609375 C-33 62 -33 62 -33 60 C-33.66 60 -34.32 60 -35 60 C-38.12432647 56.03450872 -38.37410381 52.95687553 -38 48 C-37.67 47.34 -37.34 46.68 -37 46 C-36.20940186 45.98541748 -35.41880371 45.97083496 -34.60424805 45.95581055 C-30.96488119 45.88058297 -27.32635794 45.78417141 -23.6875 45.6875 C-22.44419922 45.66494141 -21.20089844 45.64238281 -19.91992188 45.61914062 C-9.04725056 45.30523148 0.17319688 44.44311802 8.44140625 36.9140625 C10.21784089 34.7324761 11.00774136 32.61685739 12 30 C11.39056549 30.00222061 10.78113098 30.00444122 10.15322876 30.00672913 C3.82709335 30.0288021 -2.49903118 30.04391505 -8.82519531 30.05493164 C-11.18815556 30.05996959 -13.55111268 30.06680008 -15.9140625 30.07543945 C-19.30469535 30.08752854 -22.69528709 30.09323359 -26.0859375 30.09765625 C-27.14743011 30.10281754 -28.20892273 30.10797882 -29.30258179 30.11329651 C-30.28344757 30.11337204 -31.26431335 30.11344757 -32.27490234 30.11352539 C-33.57396011 30.11685631 -33.57396011 30.11685631 -34.89926147 30.12025452 C-37 30 -37 30 -39 29 C-39.02685412 26.68756208 -39.04632841 24.3750373 -39.0625 22.0625 C-39.07410156 20.77472656 -39.08570313 19.48695313 -39.09765625 18.16015625 C-39 15 -39 15 -38 14 C-36.43452952 13.90673284 -34.86487228 13.88254418 -33.29663086 13.88647461 C-32.29566879 13.88655014 -31.29470673 13.88662567 -30.26341248 13.88670349 C-29.1748848 13.89186478 -28.08635712 13.89702606 -26.96484375 13.90234375 C-25.3022628 13.90446617 -25.3022628 13.90446617 -23.60609436 13.90663147 C-20.04986931 13.91224967 -16.49370617 13.92480525 -12.9375 13.9375 C-10.53320403 13.94251266 -8.12890708 13.94707597 -5.72460938 13.95117188 C0.18361504 13.96222501 6.0918031 13.97898083 12 14 C10.07608351 8.68588506 10.07608351 8.68588506 6 5 C6 4.34 6 3.68 6 3 C5.38125 2.87625 4.7625 2.7525 4.125 2.625 C2 2 2 2 0 0 Z " fill="#0C572C" transform="translate(247,222)"/>
<path d="M0 0 C0.66 0 1.32 0 2 0 C2.09373106 18.90731342 2.16411947 37.81457923 2.20724869 56.72207737 C2.22781283 65.50254173 2.25581478 74.28286114 2.30175781 83.06323242 C2.341815 90.72243207 2.36747741 98.38152667 2.37635398 106.04082817 C2.38153702 110.09076737 2.39358821 114.14040622 2.42292023 118.19024849 C2.45038909 122.01439994 2.45838271 125.83813184 2.45243073 129.66237259 C2.45351709 131.05418249 2.46128173 132.44600875 2.4768219 133.83773232 C2.63396721 148.65783128 -0.77918102 161.07473402 -8 174 C-8.33 173.01 -8.66 172.02 -9 171 C-8.04245613 169.29829621 -7.07792164 167.59984101 -6.06568146 165.93009377 C2.14169673 151.06541787 -0.38820757 130.2336724 -0.39249516 113.79379678 C-0.38932571 109.78060688 -0.36362556 105.76755598 -0.34051514 101.75444031 C-0.30025574 94.18668249 -0.27968596 86.61901017 -0.26654124 79.05116194 C-0.25056816 70.42203094 -0.21211039 61.79304335 -0.17194796 53.16399634 C-0.08996141 35.44270983 -0.03561301 17.72143743 0 0 Z " fill="#0A4D27" transform="translate(398,189)"/>
<path d="M0 0 C0.66 0.33 1.32 0.66 2 1 C-4.06692027 7.61845847 -11.16947081 11.32764727 -20 13 C-22.67672517 13.0971769 -25.31974212 13.05684534 -28 13 C-22.31118264 20.61441361 -16.62264226 28.22751671 -10.8125 35.75 C-6.9608612 40.73998665 -3.13914778 45.7501987 0.6171875 50.8125 C2.39216218 53.18689235 4.18852234 55.53509174 6.0078125 57.875 C7.02632938 59.20811357 8.04456223 60.54144419 9.0625 61.875 C9.55226318 62.49358887 10.04202637 63.11217773 10.54663086 63.74951172 C10.99659424 64.34521973 11.44655762 64.94092773 11.91015625 65.5546875 C12.31371338 66.07530762 12.71727051 66.59592773 13.13305664 67.13232422 C14 69 14 69 14 75 C7.73 75 1.46 75 -5 75 C-4.505 73.515 -4.505 73.515 -4 72 C1.61 72.33 7.22 72.66 13 73 C9.98144036 67.56721306 9.98144036 67.56721306 6.52734375 62.61328125 C6.10259766 62.06736328 5.67785156 61.52144531 5.24023438 60.95898438 C4.81033203 60.41564453 4.38042969 59.87230469 3.9375 59.3125 C3.07146625 58.20454301 2.20557726 57.09647285 1.33984375 55.98828125 C-0.03646157 54.23056243 -1.41729968 52.47634749 -2.80859375 50.73046875 C-4 49 -4 49 -4 47 C-5.485 46.505 -5.485 46.505 -7 46 C-8.25390625 44.390625 -8.25390625 44.390625 -9.5625 42.25 C-12.16798411 38.17974124 -14.97750793 34.31699297 -17.9375 30.5 C-18.57933228 29.66819214 -18.57933228 29.66819214 -19.23413086 28.81958008 C-21.19353731 26.29002915 -23.17442899 23.78653362 -25.19921875 21.30859375 C-25.83472656 20.52613281 -26.47023437 19.74367188 -27.125 18.9375 C-27.68445313 18.26589844 -28.24390625 17.59429687 -28.8203125 16.90234375 C-30 15 -30 15 -30 11 C-29.05640625 10.92523438 -28.1128125 10.85046875 -27.140625 10.7734375 C-17.18846985 9.75424089 -7.0254347 7.84506875 0 0 Z " fill="#135633" transform="translate(265,270)"/>
<path d="M0 0 C31.02 0 62.04 0 94 0 C94 0.33 94 0.66 94 1 C48.46 1.495 48.46 1.495 2 2 C2 5.63 2 9.26 2 13 C20.315 13.495 20.315 13.495 39 14 C37 16 37 16 33.37646484 16.22705078 C31.82125311 16.22673357 30.26601949 16.21540299 28.7109375 16.1953125 C27.48330185 16.19106766 27.48330185 16.19106766 26.23086548 16.18673706 C23.61209607 16.17552532 20.99366636 16.15041929 18.375 16.125 C16.60156743 16.11497147 14.82812951 16.1058454 13.0546875 16.09765625 C8.70299374 16.07558278 4.3515545 16.04104644 0 16 C-1.03354508 12.89936477 -1.13364996 10.68555932 -1.125 7.4375 C-1.12757813 6.46683594 -1.13015625 5.49617187 -1.1328125 4.49609375 C-1 2 -1 2 0 0 Z " fill="#195F3A" transform="translate(208,207)"/>
<path d="M0 0 C0.33 0 0.66 0 1 0 C1.00331015 0.73015414 1.00662029 1.46030828 1.01003075 2.21258831 C1.09145385 20.0258751 1.18360859 37.83907728 1.28752708 55.65224743 C1.33752699 64.26676366 1.38397073 72.88127097 1.421875 81.49584961 C1.45494358 89.00931824 1.49485544 96.522715 1.54279006 104.03610402 C1.5679082 108.00983125 1.58973173 111.9835117 1.60334396 115.95729637 C1.61629903 119.70754555 1.63849384 123.45763309 1.66738319 127.20779228 C1.68059076 129.21986627 1.68435427 131.23199555 1.68769836 133.24411011 C1.79687933 145.26893768 3.54014813 156.49022613 7 168 C6.34 168.33 5.68 168.66 5 169 C0.88455976 158.55846594 -0.71813198 149.47833784 -0.56762695 138.16040039 C-0.56621205 136.64096626 -0.56701707 135.12152873 -0.56983948 133.60209656 C-0.57125782 129.52842487 -0.54212915 125.45550875 -0.50696969 121.3820107 C-0.4754381 117.1059867 -0.47275455 112.82994007 -0.46684265 108.55381775 C-0.45138215 100.47931202 -0.41046081 92.40515001 -0.3600952 84.33079475 C-0.30395715 75.12873606 -0.27665411 65.92665983 -0.25161803 56.72447217 C-0.19953676 37.81612086 -0.11174835 18.90808819 0 0 Z " fill="#165733" transform="translate(115,188)"/>
<path d="M0 0 C16.5 0 33 0 50 0 C48.85611511 8.00719424 48.85611511 8.00719424 44 12 C37.68479046 16.70281561 32.4841806 18.26019984 24.6328125 18.1953125 C23.95322479 18.1924826 23.27363708 18.18965271 22.57345581 18.18673706 C20.42378392 18.17562964 18.27454386 18.15054391 16.125 18.125 C14.65886023 18.11495795 13.19271386 18.10583425 11.7265625 18.09765625 C8.15090369 18.07572159 4.57549406 18.04125814 1 18 C1.12246094 19.25039063 1.24492187 20.50078125 1.37109375 21.7890625 C1.43997803 22.49240723 1.5088623 23.19575195 1.57983398 23.92041016 C2.22970839 27.13692973 4.07927738 29.39773064 6 32 C6 32.66 6 33.32 6 34 C6.66 34 7.32 34 8 34 C9.23681641 35.37695312 9.23681641 35.37695312 10.6015625 37.28125 C11.09140625 37.95800781 11.58125 38.63476562 12.0859375 39.33203125 C12.59382812 40.04746094 13.10171875 40.76289063 13.625 41.5 C14.140625 42.21542969 14.65625 42.93085938 15.1875 43.66796875 C16.46422959 45.44120429 17.73470027 47.21859948 19 49 C18.67 49.66 18.34 50.32 18 51 C14.58089163 47.02942254 11.3580978 42.9209535 8.1875 38.75 C7.39730469 37.71359375 6.60710937 36.6771875 5.79296875 35.609375 C4 33 4 33 4 31 C3.34 31 2.68 31 2 31 C-1.12432647 27.03450872 -1.37410381 23.95687553 -1 19 C-0.67 18.34 -0.34 17.68 0 17 C0.79059814 16.98541748 1.58119629 16.97083496 2.39575195 16.95581055 C6.03511881 16.88058297 9.67364206 16.78417141 13.3125 16.6875 C14.55580078 16.66494141 15.79910156 16.64238281 17.08007812 16.61914062 C27.95274944 16.30523148 37.17319688 15.44311802 45.44140625 7.9140625 C47.41393423 5.68599566 47.41393423 5.68599566 49 1 C32.83 1 16.66 1 0 1 C0 0.67 0 0.34 0 0 Z " fill="#1C6540" transform="translate(210,251)"/>
<path d="M0 0 C3.31402595 1.47624792 5.75670349 3.390765 8.5 5.75 C13.90681528 10.15555319 19.64581162 13.17791351 26 16 C26.71913574 16.33290039 27.43827148 16.66580078 28.17919922 17.00878906 C31.71408756 18.2509257 35.18926577 18.70823434 38.89453125 19.0859375 C39.70581985 19.16951508 40.51710846 19.25309265 41.35298157 19.33920288 C53.74860437 20.48225248 66.21645219 20.46028322 78.65478516 20.60089111 C82.08830611 20.64161417 85.52167898 20.69238619 88.95507812 20.7421875 C95.63662172 20.83714235 102.31823263 20.92247174 109 21 C109 21.33 109 21.66 109 22 C101.21019432 22.20228367 93.42017668 22.38571659 85.62941837 22.54658794 C82.00990787 22.62188774 78.39075521 22.70312458 74.77172852 22.79907227 C25.72904459 24.08561051 25.72904459 24.08561051 6 7 C3.81043952 4.75103284 1.92032555 2.49123315 0 0 Z " fill="#27744E" transform="translate(128,368)"/>
<path d="M0 0 C0.33 0.66 0.66 1.32 1 2 C-7.91 2 -16.82 2 -26 2 C-25.01 4.97 -24.02 7.94 -23 11 C-23 12.65 -23 14.3 -23 16 C-15.41 16 -7.82 16 0 16 C0 16.66 0 17.32 0 18 C-7.92 18 -15.84 18 -24 18 C-26 12 -26 12 -28 1 C-18.76 0.67 -9.52 0.34 0 0 Z " fill="#10542E" transform="translate(301,220)"/>
<path d="M0 0 C0.33 0 0.66 0 1 0 C1.07653918 7.20411311 1.12880397 14.40811999 1.16479492 21.61254883 C1.17981103 24.0595288 1.20023005 26.50648217 1.22631836 28.95336914 C1.26301818 32.48590692 1.27979877 36.01808651 1.29296875 39.55078125 C1.30845261 40.63144363 1.32393646 41.71210602 1.33988953 42.82551575 C1.34200469 52.53585228 -0.64413249 61.10558359 -5.1875 69.6875 C-5.98220703 71.20923828 -5.98220703 71.20923828 -6.79296875 72.76171875 C-7.39044922 73.86966797 -7.39044922 73.86966797 -8 75 C-8.33 74.01 -8.66 73.02 -9 72 C-8.03966333 70.31341848 -7.07304271 68.62989204 -6.06506348 66.97134399 C-4.28017043 63.66765528 -3.54405172 60.23217581 -2.796875 56.57421875 C-2.5447525 55.35275398 -2.5447525 55.35275398 -2.28753662 54.10661316 C-0.2802506 43.42245917 -0.3233679 32.64791448 -0.25 21.8125 C-0.22175493 19.68291944 -0.19181609 17.55336065 -0.16015625 15.42382812 C-0.08732185 10.28259264 -0.03713511 5.14161213 0 0 Z " fill="#155834" transform="translate(398,288)"/>
<path d="M0 0 C-2.72345047 2.72345047 -4.70131947 2.50395494 -8.5 2.9375 C-22.29597998 4.78165651 -31.88762486 9.78650533 -43 18 C-42.875 16.27734375 -42.875 16.27734375 -42 14 C-40.01636228 12.30967456 -38.18378861 10.94512136 -36 9.5625 C-35.38278076 9.17070557 -34.76556152 8.77891113 -34.12963867 8.37524414 C-23.86901747 2.20354753 -11.99613319 -1.16593087 0 0 Z " fill="#0B3D23" transform="translate(176,123)"/>
<path d="M0 0 C3.31402595 1.47624792 5.75670349 3.390765 8.5 5.75 C15.83219381 11.72438014 25.24857542 17.23314339 34.75 18.5 C35.8225 18.665 36.895 18.83 38 19 C38.495 19.99 38.495 19.99 39 21 C25.52667692 20.31491578 13.40441474 14.60530971 3.984375 4.9296875 C2.6008538 3.33281957 1.28990907 1.67339556 0 0 Z " fill="#155433" transform="translate(128,368)"/>
<path d="M0 0 C6 7.71428571 6 7.71428571 6 11 C6.66 11 7.32 11 8 11 C9.23681641 12.37695312 9.23681641 12.37695312 10.6015625 14.28125 C11.09140625 14.95800781 11.58125 15.63476562 12.0859375 16.33203125 C12.59382812 17.04746094 13.10171875 17.76289063 13.625 18.5 C14.140625 19.21542969 14.65625 19.93085938 15.1875 20.66796875 C16.46422959 22.44120429 17.73470027 24.21859948 19 26 C18.67 26.66 18.34 27.32 18 28 C14.58089163 24.02942254 11.3580978 19.9209535 8.1875 15.75 C7.39730469 14.71359375 6.60710937 13.6771875 5.79296875 12.609375 C4 10 4 10 4 8 C3.34 8 2.68 8 2 8 C-0.1519437 4.77208445 -0.20086443 3.71599191 0 0 Z " fill="#10512D" transform="translate(210,274)"/>
<path d="M0 0 C0.66 0 1.32 0 2 0 C-1.46989313 7.57986363 -7.92598771 13.70680634 -15 18 C-15.66 18 -16.32 18 -17 18 C-17 17.34 -17 16.68 -17 16 C-15.56640625 14.84375 -15.56640625 14.84375 -13.5625 13.5 C-8.97906389 10.21561262 -5.51350457 6.26508031 -1.8828125 1.9765625 C-1.26148438 1.32429688 -0.64015625 0.67203125 0 0 Z " fill="#12572E" transform="translate(387,363)"/>
<path d="M0 0 C3.13620813 3.48667265 4.10663477 7.30036803 5.1875 11.75 C5.36474609 12.44738281 5.54199219 13.14476562 5.72460938 13.86328125 C6.15800749 15.57344679 6.58014018 17.28646044 7 19 C6.34 19.33 5.68 19.66 5 20 C4.1572257 17.60712296 3.32562998 15.21128981 2.5 12.8125 C2.26152344 12.13896484 2.02304688 11.46542969 1.77734375 10.77148438 C0.51272408 7.06795533 -0.30451221 3.92059464 0 0 Z " fill="#0C4226" transform="translate(115,337)"/>
<path d="M0 0 C3.80804847 3.6570988 7.10812243 7.49569942 10.3125 11.6875 C10.76689453 12.26822266 11.22128906 12.84894531 11.68945312 13.44726562 C15 17.7534657 15 17.7534657 15 20 C14.34 20 13.68 20 13 20 C11.57958984 18.37939453 11.57958984 18.37939453 9.9609375 16.1328125 C9.09082031 14.92818359 9.09082031 14.92818359 8.203125 13.69921875 C7.59984375 12.84972656 6.9965625 12.00023437 6.375 11.125 C5.76398438 10.28324219 5.15296875 9.44148438 4.5234375 8.57421875 C0 2.26361956 0 2.26361956 0 0 Z " fill="#114F2E" transform="translate(229,302)"/>
<path d="M0 0 C-14.17790456 7.47406639 -14.17790456 7.47406639 -22 7 C-18.24765382 5.03265737 -14.35424721 3.41772426 -10.4375 1.8125 C-9.76525391 1.52697266 -9.09300781 1.24144531 -8.40039062 0.94726562 C-3.34642508 -1.11547503 -3.34642508 -1.11547503 0 0 Z " fill="#135432" transform="translate(370,382)"/>
<path d="M0 0 C5.28534706 0.32032406 8.43220064 3.38726614 12 7 C14.29013653 10.4352048 14.17842973 11.985331 14 16 C12 15 12 15 11.25390625 13.22265625 C10.79396652 11.78566942 10.33562563 10.34816985 9.87890625 8.91015625 C9.04040098 6.64848147 9.04040098 6.64848147 6 5 C6 4.34 6 3.68 6 3 C5.38125 2.87625 4.7625 2.7525 4.125 2.625 C2 2 2 2 0 0 Z " fill="#145836" transform="translate(247,222)"/>
<path d="M0 0 C0.33 0 0.66 0 1 0 C0.72417585 6.48186757 -1.76527863 11.09109414 -6 16 C-6.99 16.33 -7.98 16.66 -9 17 C-7.7964814 14.26473045 -6.28541355 12.0002847 -4.5 9.625 C-2.25966958 6.56519768 -0.9900201 3.69007491 0 0 Z " fill="#125931" transform="translate(276,253)"/>
<path d="M0 0 C1.95825873 -0.02694851 3.91662226 -0.04637218 5.875 -0.0625 C6.96554687 -0.07410156 8.05609375 -0.08570312 9.1796875 -0.09765625 C12 0 12 0 14 1 C14 1.66 14 2.32 14 3 C11.8535247 2.88655624 9.70779408 2.75893655 7.5625 2.625 C6.36753906 2.55539063 5.17257812 2.48578125 3.94140625 2.4140625 C2.97074219 2.27742188 2.00007813 2.14078125 1 2 C0.67 1.34 0.34 0.68 0 0 Z " fill="#0E4026" transform="translate(337,123)"/>
<path d="M0 0 C1.125 3.75 1.125 3.75 0 6 C-0.23172827 8.54615009 -0.41894529 11.07396225 -0.5625 13.625 C-0.60568359 14.33140625 -0.64886719 15.0378125 -0.69335938 15.765625 C-0.79944751 17.51018537 -0.90022889 19.25506697 -1 21 C-1.33 21 -1.66 21 -2 21 C-2.05791844 17.87507749 -2.09356746 14.75029234 -2.125 11.625 C-2.14175781 10.73554688 -2.15851563 9.84609375 -2.17578125 8.9296875 C-2.18222656 8.07890625 -2.18867187 7.228125 -2.1953125 6.3515625 C-2.20578613 5.56604004 -2.21625977 4.78051758 -2.22705078 3.97119141 C-2 2 -2 2 0 0 Z " fill="#0D3D26" transform="translate(117,167)"/>
<path d="M0 0 C1.79133978 -0.05391993 3.58313899 -0.09275571 5.375 -0.125 C6.37273437 -0.14820313 7.37046875 -0.17140625 8.3984375 -0.1953125 C11 0 11 0 13 2 C8.15507803 3.51403812 4.7408989 2.36602172 0 1 C0 0.67 0 0.34 0 0 Z " fill="#1E6847" transform="translate(167,388)"/>
<path d="M0 0 C3.9252025 3.70090521 6.94580156 7.54959656 10 12 C5.93194482 11.07015882 4.34543308 9.40336874 2.1875 6 C0 2.33846154 0 2.33846154 0 0 Z " fill="#135731" transform="translate(250,330)"/>
<path d="M0 0 C3.23861303 1.44424635 5.61969163 3.25772247 8.25 5.625 C8.95640625 6.25664062 9.6628125 6.88828125 10.390625 7.5390625 C10.92171875 8.02117187 11.4528125 8.50328125 12 9 C11.67 9.66 11.34 10.32 11 11 C9.35086118 9.54540569 7.70578218 8.08620743 6.0625 6.625 C5.14597656 5.81289063 4.22945312 5.00078125 3.28515625 4.1640625 C1 2 1 2 0 0 Z " fill="#0F492A" transform="translate(128,368)"/>
<path d="M0 0 C3.69790046 1.23263349 3.9354846 2.20052451 5.6875 5.5625 C6.12449219 6.38878906 6.56148438 7.21507812 7.01171875 8.06640625 C7.33785156 8.70449219 7.66398438 9.34257812 8 10 C7.01 10.495 7.01 10.495 6 11 C4.99735282 9.35577799 3.99794896 7.70957779 3 6.0625 C2.443125 5.14597656 1.88625 4.22945313 1.3125 3.28515625 C0 1 0 1 0 0 Z " fill="#12502D" transform="translate(121,357)"/>
<path d="M0 0 C0.66 0 1.32 0 2 0 C1.33035714 8.03571429 1.33035714 8.03571429 -2 12 C-1.85904936 10.3745692 -1.71207913 8.74965949 -1.5625 7.125 C-1.48128906 6.22007812 -1.40007812 5.31515625 -1.31640625 4.3828125 C-1 2 -1 2 0 0 Z " fill="#125332" transform="translate(397,336)"/>
<path d="M0 0 C0.33 0.99 0.66 1.98 1 3 C-2.21311475 8.73770492 -2.21311475 8.73770492 -6 10 C-4.34832443 6.4213696 -2.21713508 3.25179812 0 0 Z " fill="#11562E" transform="translate(259,253)"/>
<path d="M0 0 C2.83374881 3.20336822 3.5205537 5.78087253 4 10 C3.01 9.67 2.02 9.34 1 9 C0.67 6.03 0.34 3.06 0 0 Z " fill="#114B29" transform="translate(115,337)"/>
<path d="M0 0 C4.875 4.625 4.875 4.625 6 8 C2.24623848 6.74874616 1.75926711 5.4347596 0 2 C0 1.34 0 0.68 0 0 Z " fill="#0E4D29" transform="translate(244,322)"/>
</svg>
